# xmcd
#
# Track frame offsets: 
#        150
#        11347
#        24768
#        37695
#        50821
#        66238
#        80120
#        92329
#        106193
#        120248
#        134709
#        149031
#        162340
#        175954
#        190350
#        202703
#        216146
#        227652
#        238573
#        249067
#        259531
#
# Disc length: 3623 seconds
#
# Revision: 0
# Processed by: cddbd v1.5.2PL0 Copyright (c) Steve Scherf et al.
# Submitted via: ExactAudioCopy v1.0b3
#
DISCID=110e2515
DTITLE=Blues Various - Best of Blues
DYEAR=1900
DGENRE=Blues
TTITLE0=J. B. Lenoir - I Have Married
TTITLE1=J. B. Lenoir - How Much More
TTITLE2=J. B. Lenoir - Let's Roll Pt. 1
TTITLE3=J. B. Lenoir - The Mojo Pt. 1
TTITLE4=J. B. Lenoir - Slow Down Woman
TTITLE5=J. B. Lenoir - Louise
TTITLE6=J. B. Lenoir - When I Was Young
TTITLE7=Leadbelly - Alabama Bound
TTITLE8=Leadbelly - Shorty People
TTITLE9=Leadbelly - Easy Rider
TTITLE10=Leadbelly - Black Snack Moan
TTITLE11=Leadbelly - See See Rider
TTITLE12=Leadbelly - Roberta Pt. 1
TTITLE13=Leadbelly - Pigmeat
TTITLE14=Little Willie John - Fever
TTITLE15=Little Willie John - All Around The World
TTITLE16=Little Willie John - Suffering With The Blues
TTITLE17=Little Willie John - Tell It Like It Is
TTITLE18=Little Willie John - Person To Person
TTITLE19=Little Willie John - Need Your Love So Bad
TTITLE20=Little Willie John - Talk To Me, Talk To Me
EXTD=
EXTT0=
EXTT1=
EXTT2=
EXTT3=
EXTT4=
EXTT5=
EXTT6=
EXTT7=
EXTT8=
EXTT9=
EXTT10=
EXTT11=
EXTT12=
EXTT13=
EXTT14=
EXTT15=
EXTT16=
EXTT17=
EXTT18=
EXTT19=
EXTT20=
PLAYORDER=
